<svg xmlns="http://www.w3.org/2000/svg" width="635.45" height="714" viewBox="0 0 635.45 714" font-family="system-ui, -apple-system, &quot;Segoe UI&quot;, Roboto, Helvetica, Arial, sans-serif" role="img" aria-label="Platform grouping" data-teamtopo="0.1.0"><defs><pattern id="tt-dots" patternUnits="userSpaceOnUse" width="7" height="7"><rect width="7" height="7" fill="rgba(107,79,168,0.25)"/><circle cx="3.5" cy="3.5" r="1.4" fill="#6B4FA8"/></pattern></defs><rect width="635.45" height="714" fill="#ffffff" class="tt-bg"/><text x="32" y="50" font-size="18" font-weight="700" fill="#111827">Platform grouping</text><g class="tt-flow"><path d="M32,78 H585.45 L603.45,89 L585.45,100 H32 Z" fill="#e5e7eb"/><text x="317.725" y="93" text-anchor="middle" font-size="11" letter-spacing="1.5" fill="#4b5563">FLOW OF CHANGE</text></g><g class="tt-frames"><g class="tt-frame tt-platform" data-id="cloud"><title>Platform team</title><rect x="32" y="332" width="490" height="330" rx="6" fill="rgba(187,217,243,0.18)" stroke="#5B8FD6" stroke-width="1.5" stroke-dasharray="7 5"/><rect x="222.785" y="652" width="108.43" height="20" fill="#ffffff"/><text x="277" y="666" text-anchor="middle" font-size="13" font-weight="600" fill="#3b76c4">Cloud Platform</text></g></g><g class="tt-lanes"><g class="tt-node tt-platform" data-id="bare"><title>Platform team</title><rect x="56" y="568" width="442" height="56" rx="8" fill="#BBD9F3" stroke="#6FA6DD" stroke-width="2"/><text x="277" y="600.9" text-anchor="middle" font-size="14" fill="#0f2f55" font-weight="600"><tspan x="277" dy="0">Bare-metal Fleet</tspan></text></g><g class="tt-node tt-stream" data-id="mobile"><title>Stream-aligned team</title><rect x="32" y="138" width="490" height="48" rx="8" fill="#FFE9A8" stroke="#E8C453" stroke-width="2"/><text x="277" y="166.9" text-anchor="middle" font-size="14" fill="#3b2f00" font-weight="600"><tspan x="277" dy="0">Mobile App</tspan></text></g><g class="tt-node tt-stream" data-id="web"><title>Stream-aligned team</title><rect x="32" y="200" width="490" height="48" rx="8" fill="#FFE9A8" stroke="#E8C453" stroke-width="2"/><text x="277" y="228.9" text-anchor="middle" font-size="14" fill="#3b2f00" font-weight="600"><tspan x="277" dy="0">Web Storefront</tspan></text></g><g class="tt-node tt-stream" data-id="k8s"><title>Stream-aligned team</title><rect x="56" y="394" width="442" height="48" rx="8" fill="#FFE9A8" stroke="#E8C453" stroke-width="2"/><text x="277" y="422.9" text-anchor="middle" font-size="14" fill="#3b2f00" font-weight="600"><tspan x="277" dy="0">Kubernetes</tspan></text></g><g class="tt-node tt-stream" data-id="obs"><title>Stream-aligned team</title><rect x="56" y="456" width="442" height="48" rx="8" fill="#FFE9A8" stroke="#E8C453" stroke-width="2"/><text x="277" y="484.9" text-anchor="middle" font-size="14" fill="#3b2f00" font-weight="600"><tspan x="277" dy="0">Observability</tspan></text></g></g><g class="tt-xaas"><g class="tt-edge tt-xaas"><title>X-as-a-Service: Bare-metal Fleet -&gt; Kubernetes, Observability</title><polygon points="170,568 78,568 124,394" fill="rgba(120,124,132,0.32)" stroke="rgba(90,94,102,0.35)" stroke-width="1" stroke-linejoin="round"/><g class="tt-edge-label"><rect x="102.47" y="509.125" width="43.06" height="21.75" rx="4" fill="#c6c8cb"/><text x="124" y="523.85" text-anchor="middle" font-size="11" font-weight="500" fill="#3f4652"><tspan x="124" dy="0">XaaS</tspan></text></g></g><g class="tt-edge tt-xaas"><title>X-as-a-Service: Kubernetes -&gt; Mobile App, Web Storefront (runtime)</title><polygon points="309,394 245,394 277,138" fill="rgba(120,124,132,0.32)" stroke="rgba(90,94,102,0.35)" stroke-width="1" stroke-linejoin="round"/><g class="tt-edge-label"><rect x="248.70499999999998" y="335.125" width="56.59" height="21.75" rx="4" fill="#c6c8cb"/><text x="277" y="349.85" text-anchor="middle" font-size="11" font-weight="500" fill="#3f4652"><tspan x="277" dy="0">runtime</tspan></text></g></g><g class="tt-edge tt-xaas"><title>X-as-a-Service: Observability -&gt; Mobile App, Web Storefront (dashboards &amp; alerts)</title><polygon points="441.83,456 377.83,456 409.83,138" fill="rgba(120,124,132,0.32)" stroke="rgba(90,94,102,0.35)" stroke-width="1" stroke-linejoin="round"/><g class="tt-edge-label"><rect x="349.415" y="349.125" width="120.83000000000001" height="21.75" rx="4" fill="#c6c8cb"/><text x="409.83000000000004" y="363.85" text-anchor="middle" font-size="11" font-weight="500" fill="#3f4652"><tspan x="409.83000000000004" dy="0">dashboards &amp; alerts</tspan></text></g></g></g><g class="tt-overlays"><g class="tt-node tt-subsystem" data-id="net"><title>Complicated-subsystem team</title><path d="M374,366 H462 L474,378 V410 L462,422 H374 L362,410 V378 Z" fill="#F6C79B" stroke="#DE9A5C" stroke-width="2"/><text x="418" y="390.7" text-anchor="middle" font-size="12" fill="#4a2200" font-weight="600"><tspan x="418" dy="0">Network</tspan><tspan x="418" dy="15">Fabric</tspan></text></g><g class="tt-node tt-enabling" data-id="sre"><title>Enabling team</title><rect x="430" y="184" width="68" height="80" rx="10" fill="#C4B1E0" stroke="#8E6BBF" stroke-width="2"/></g></g><g class="tt-facilitating"><g class="tt-edge tt-facilitating"><title>Facilitating: SRE Coaching -&gt; Web Storefront (incident reviews)</title><rect x="430" y="200" width="68" height="48" fill="url(#tt-dots)"/><g class="tt-edge-label"><rect x="500" y="213.125" width="103.44999999999999" height="21.75" rx="4" fill="#cdc3e1"/><text x="551.725" y="227.85" text-anchor="middle" font-size="11" font-weight="500" fill="#4c3a85"><tspan x="551.725" dy="0">incident reviews</tspan></text></g></g></g><g class="tt-overlay-labels"><g class="tt-node tt-enabling" data-id="sre"><title>Enabling team</title><text x="464" y="220.7" text-anchor="middle" font-size="12" fill="#2a1a55" font-weight="600"><tspan x="464" dy="0">SRE</tspan><tspan x="464" dy="15">Coaching</tspan></text></g></g><g class="tt-collaboration"><g class="tt-edge tt-collaboration"><title>Collaboration: Mobile App -&gt; Web Storefront (shared design system)</title><polygon points="231,171.25 351,171.25 323,214.75 203,214.75" fill="rgba(196,177,224,0.85)" stroke="#A58DCB" stroke-width="1.5" stroke-linejoin="round"/><g class="tt-edge-label"><rect x="232.205" y="175.25" width="89.58999999999999" height="35.5" rx="4" fill="#cdbde5"/><text x="277" y="189.975" text-anchor="middle" font-size="11" font-weight="500" fill="#2a1a55"><tspan x="277" dy="0">shared design</tspan><tspan x="277" dy="13.75">system</tspan></text></g></g></g></svg>
